<svg xmlns="http://www.w3.org/2000/svg" xmlns:xlink="http://www.w3.org/1999/xlink" zoomAndPan="magnify" viewBox="0 0 224.87999 44.999999" preserveAspectRatio="xMidYMid meet" width="550" height="122"><defs><g></g><clipPath id="51ad8077ac"><path d="M 6.691406 2.625 L 46.449219 2.625 L 46.449219 42.382812 L 6.691406 42.382812 Z M 6.691406 2.625 " clip-rule="nonzero"></path></clipPath><clipPath id="74838ae3bd"><path d="M 4.65625 24.335938 L 19.738281 24.335938 L 19.738281 42.464844 L 4.65625 42.464844 Z M 4.65625 24.335938 " clip-rule="nonzero"></path></clipPath></defs><g clip-path="url(#51ad8077ac)"><path fill="#0075f2" d="M 26.570312 12.605469 C 21.109375 12.605469 16.683594 17.042969 16.683594 22.503906 C 16.683594 27.953125 21.109375 32.386719 26.570312 32.386719 C 29.042969 32.386719 31.386719 31.457031 33.183594 29.84375 C 35.738281 27.105469 39.742188 30.953125 36.953125 33.558594 C 34.183594 36.148438 30.5 37.667969 26.570312 37.667969 L 26.570312 41.585938 L 26.570312 37.667969 C 25.269531 37.667969 24.214844 38.726562 24.214844 40.023438 C 24.214844 41.3125 25.269531 42.367188 26.570312 42.367188 C 37.53125 42.367188 46.4375 33.464844 46.4375 22.503906 C 46.4375 11.527344 37.53125 2.625 26.570312 2.625 C 15.597656 2.625 6.691406 11.527344 6.691406 22.492188 L 6.691406 22.503906 C 6.691406 23.789062 7.75 24.847656 9.039062 24.847656 C 10.335938 24.847656 11.394531 23.789062 11.394531 22.503906 C 11.394531 14.117188 18.183594 7.324219 26.570312 7.324219 C 34.859375 7.324219 41.609375 13.988281 41.738281 22.257812 C 41.757812 24 41.167969 25.144531 39.023438 25.144531 L 24.648438 25.144531 C 23.191406 25.144531 22.007812 23.949219 22.007812 22.503906 C 22.007812 21.042969 23.191406 19.851562 24.648438 19.851562 L 36.097656 19.851562 C 34.925781 15.617188 31.039062 12.605469 26.570312 12.605469 Z M 26.570312 12.605469 " fill-opacity="1" fill-rule="evenodd"></path></g><g clip-path="url(#74838ae3bd)"><path fill="#0075f2" d="M 13.046875 28.742188 L 13.046875 26.253906 L 15.542969 26.253906 L 15.542969 28.742188 Z M -2.566406 42.617188 L -2.566406 24.347656 L -7.226562 24.347656 L -7.226562 24.335938 L -14.464844 24.335938 C -19.53125 24.335938 -24.105469 26.386719 -27.425781 29.695312 C -30.75 33.007812 -32.804688 37.566406 -32.804688 42.617188 L -24.871094 42.617188 C -24.871094 47.664062 -22.816406 52.226562 -19.496094 55.539062 C -16.1875 58.847656 -11.597656 60.894531 -6.535156 60.894531 C -1.46875 60.894531 3.105469 58.847656 6.429688 55.539062 C 9.75 52.226562 11.804688 47.664062 11.804688 42.617188 L 11.804688 34.734375 L 7.035156 34.734375 L 7.035156 29.992188 L 11.792969 29.992188 L 11.792969 34.734375 L 19.722656 34.734375 L 19.722656 42.617188 L 3.871094 42.617188 C 3.871094 45.488281 2.710938 48.070312 0.824219 49.953125 C -1.0625 51.832031 -3.65625 52.988281 -6.535156 52.988281 C -9.414062 52.988281 -12.003906 51.832031 -13.890625 49.953125 C -15.78125 48.070312 -16.9375 45.488281 -16.9375 42.617188 L -24.871094 42.617188 C -24.871094 39.746094 -23.699219 37.164062 -21.824219 35.28125 C -19.9375 33.398438 -17.34375 32.246094 -14.464844 32.246094 L -14.464844 32.234375 L -10.5 32.234375 L -10.5 42.617188 Z M -2.566406 42.617188 " fill-opacity="1" fill-rule="evenodd"></path></g><g fill="#000000" fill-opacity="1"><g transform="translate(52.00739, 30.370798)"><g><path d="M 6.234375 -11.5625 C 7.242188 -11.5625 8.109375 -11.351562 8.828125 -10.9375 C 9.554688 -10.519531 10.113281 -9.925781 10.5 -9.15625 C 10.894531 -8.394531 11.09375 -7.484375 11.09375 -6.421875 L 11.09375 -5.125 L 3.53125 -5.125 C 3.550781 -4.019531 3.84375 -3.171875 4.40625 -2.578125 C 4.96875 -1.984375 5.757812 -1.6875 6.78125 -1.6875 C 7.507812 -1.6875 8.160156 -1.753906 8.734375 -1.890625 C 9.304688 -2.035156 9.898438 -2.242188 10.515625 -2.515625 L 10.515625 -0.5625 C 9.953125 -0.289062 9.375 -0.0976562 8.78125 0.015625 C 8.195312 0.140625 7.5 0.203125 6.6875 0.203125 C 5.570312 0.203125 4.59375 -0.0078125 3.75 -0.4375 C 2.90625 -0.875 2.242188 -1.519531 1.765625 -2.375 C 1.296875 -3.238281 1.0625 -4.3125 1.0625 -5.59375 C 1.0625 -6.863281 1.273438 -7.941406 1.703125 -8.828125 C 2.128906 -9.722656 2.734375 -10.398438 3.515625 -10.859375 C 4.296875 -11.328125 5.203125 -11.5625 6.234375 -11.5625 Z M 6.234375 -9.75 C 5.484375 -9.75 4.875 -9.5 4.40625 -9 C 3.9375 -8.507812 3.660156 -7.789062 3.578125 -6.84375 L 8.734375 -6.84375 C 8.734375 -7.40625 8.640625 -7.90625 8.453125 -8.34375 C 8.273438 -8.78125 8.003906 -9.125 7.640625 -9.375 C 7.273438 -9.625 6.804688 -9.75 6.234375 -9.75 Z M 6.234375 -9.75 "></path></g></g><g transform="translate(64.100545, 30.370798)"><g><path d="M 10.609375 -4.078125 C 10.609375 -3.191406 10.390625 -2.425781 9.953125 -1.78125 C 9.523438 -1.132812 8.90625 -0.640625 8.09375 -0.296875 C 7.289062 0.0351562 6.328125 0.203125 5.203125 0.203125 C 4.660156 0.203125 4.140625 0.171875 3.640625 0.109375 C 3.140625 0.046875 2.664062 -0.0390625 2.21875 -0.15625 C 1.78125 -0.28125 1.382812 -0.425781 1.03125 -0.59375 L 1.03125 -2.90625 C 1.632812 -2.644531 2.3125 -2.40625 3.0625 -2.1875 C 3.8125 -1.96875 4.578125 -1.859375 5.359375 -1.859375 C 5.992188 -1.859375 6.519531 -1.941406 6.9375 -2.109375 C 7.363281 -2.273438 7.675781 -2.515625 7.875 -2.828125 C 8.082031 -3.140625 8.1875 -3.503906 8.1875 -3.921875 C 8.1875 -4.367188 8.066406 -4.742188 7.828125 -5.046875 C 7.585938 -5.359375 7.226562 -5.640625 6.75 -5.890625 C 6.269531 -6.148438 5.664062 -6.425781 4.9375 -6.71875 C 4.445312 -6.914062 3.976562 -7.140625 3.53125 -7.390625 C 3.082031 -7.648438 2.679688 -7.945312 2.328125 -8.28125 C 1.984375 -8.625 1.707031 -9.03125 1.5 -9.5 C 1.300781 -9.96875 1.203125 -10.519531 1.203125 -11.15625 C 1.203125 -12 1.40625 -12.722656 1.8125 -13.328125 C 2.21875 -13.929688 2.789062 -14.390625 3.53125 -14.703125 C 4.28125 -15.023438 5.148438 -15.1875 6.140625 -15.1875 C 6.921875 -15.1875 7.65625 -15.101562 8.34375 -14.9375 C 9.039062 -14.78125 9.726562 -14.550781 10.40625 -14.25 L 9.625 -12.28125 C 9.007812 -12.53125 8.410156 -12.726562 7.828125 -12.875 C 7.253906 -13.03125 6.664062 -13.109375 6.0625 -13.109375 C 5.539062 -13.109375 5.097656 -13.03125 4.734375 -12.875 C 4.378906 -12.71875 4.109375 -12.492188 3.921875 -12.203125 C 3.734375 -11.921875 3.640625 -11.585938 3.640625 -11.203125 C 3.640625 -10.765625 3.742188 -10.394531 3.953125 -10.09375 C 4.171875 -9.800781 4.503906 -9.53125 4.953125 -9.28125 C 5.410156 -9.039062 6 -8.769531 6.71875 -8.46875 C 7.550781 -8.125 8.253906 -7.765625 8.828125 -7.390625 C 9.398438 -7.015625 9.835938 -6.5625 10.140625 -6.03125 C 10.453125 -5.507812 10.609375 -4.859375 10.609375 -4.078125 Z M 10.609375 -4.078125 "></path></g></g><g transform="translate(75.640285, 30.370798)"><g><path d="M 11.765625 -5.703125 C 11.765625 -4.753906 11.640625 -3.914062 11.390625 -3.1875 C 11.148438 -2.457031 10.789062 -1.835938 10.3125 -1.328125 C 9.84375 -0.828125 9.273438 -0.445312 8.609375 -0.1875 C 7.953125 0.0703125 7.207031 0.203125 6.375 0.203125 C 5.59375 0.203125 4.878906 0.0703125 4.234375 -0.1875 C 3.585938 -0.445312 3.023438 -0.828125 2.546875 -1.328125 C 2.066406 -1.835938 1.695312 -2.457031 1.4375 -3.1875 C 1.1875 -3.914062 1.0625 -4.753906 1.0625 -5.703125 C 1.0625 -6.953125 1.273438 -8.007812 1.703125 -8.875 C 2.140625 -9.75 2.757812 -10.414062 3.5625 -10.875 C 4.375 -11.332031 5.332031 -11.5625 6.4375 -11.5625 C 7.488281 -11.5625 8.410156 -11.332031 9.203125 -10.875 C 10.003906 -10.414062 10.628906 -9.75 11.078125 -8.875 C 11.535156 -8 11.765625 -6.941406 11.765625 -5.703125 Z M 3.53125 -5.703125 C 3.53125 -4.867188 3.628906 -4.15625 3.828125 -3.5625 C 4.035156 -2.976562 4.347656 -2.53125 4.765625 -2.21875 C 5.191406 -1.914062 5.742188 -1.765625 6.421875 -1.765625 C 7.085938 -1.765625 7.628906 -1.914062 8.046875 -2.21875 C 8.472656 -2.53125 8.785156 -2.976562 8.984375 -3.5625 C 9.179688 -4.15625 9.28125 -4.867188 9.28125 -5.703125 C 9.28125 -6.523438 9.179688 -7.222656 8.984375 -7.796875 C 8.785156 -8.378906 8.472656 -8.820312 8.046875 -9.125 C 7.628906 -9.425781 7.082031 -9.578125 6.40625 -9.578125 C 5.40625 -9.578125 4.675781 -9.242188 4.21875 -8.578125 C 3.757812 -7.910156 3.53125 -6.953125 3.53125 -5.703125 Z M 3.53125 -5.703125 "></path></g></g><g transform="translate(88.450831, 30.370798)"><g><path d="M 7.390625 -9.515625 L 4.625 -9.515625 L 4.625 0 L 2.21875 0 L 2.21875 -9.515625 L 0.375 -9.515625 L 0.375 -10.671875 L 2.21875 -11.375 L 2.21875 -12.15625 C 2.21875 -13.125 2.367188 -13.890625 2.671875 -14.453125 C 2.984375 -15.023438 3.421875 -15.4375 3.984375 -15.6875 C 4.554688 -15.9375 5.238281 -16.0625 6.03125 -16.0625 C 6.550781 -16.0625 7.023438 -16.015625 7.453125 -15.921875 C 7.890625 -15.835938 8.253906 -15.742188 8.546875 -15.640625 L 7.921875 -13.8125 C 7.691406 -13.882812 7.429688 -13.953125 7.140625 -14.015625 C 6.859375 -14.085938 6.550781 -14.125 6.21875 -14.125 C 5.675781 -14.125 5.273438 -13.953125 5.015625 -13.609375 C 4.753906 -13.265625 4.625 -12.765625 4.625 -12.109375 L 4.625 -11.34375 L 7.390625 -11.34375 Z M 7.390625 -9.515625 "></path></g></g><g transform="translate(96.044922, 30.370798)"><g><path d="M 5.9375 -1.734375 C 6.257812 -1.734375 6.570312 -1.765625 6.875 -1.828125 C 7.1875 -1.890625 7.46875 -1.957031 7.71875 -2.03125 L 7.71875 -0.21875 C 7.445312 -0.101562 7.097656 -0.00390625 6.671875 0.078125 C 6.253906 0.160156 5.816406 0.203125 5.359375 0.203125 C 4.710938 0.203125 4.132812 0.0976562 3.625 -0.109375 C 3.113281 -0.328125 2.707031 -0.695312 2.40625 -1.21875 C 2.101562 -1.75 1.953125 -2.476562 1.953125 -3.40625 L 1.953125 -9.515625 L 0.40625 -9.515625 L 0.40625 -10.578125 L 2.0625 -11.4375 L 2.859375 -13.859375 L 4.375 -13.859375 L 4.375 -11.34375 L 7.625 -11.34375 L 7.625 -9.515625 L 4.375 -9.515625 L 4.375 -3.4375 C 4.375 -2.863281 4.515625 -2.4375 4.796875 -2.15625 C 5.085938 -1.875 5.46875 -1.734375 5.9375 -1.734375 Z M 5.9375 -1.734375 "></path></g></g><g transform="translate(104.346156, 30.370798)"><g><path d="M 11 -0.015625 L 9.5625 -5.28125 C 9.488281 -5.539062 9.40625 -5.851562 9.3125 -6.21875 C 9.21875 -6.59375 9.125 -6.976562 9.03125 -7.375 C 8.9375 -7.769531 8.847656 -8.132812 8.765625 -8.46875 C 8.679688 -8.800781 8.625 -9.054688 8.59375 -9.234375 L 8.5 -9.234375 C 8.46875 -9.054688 8.414062 -8.800781 8.34375 -8.46875 C 8.269531 -8.132812 8.179688 -7.765625 8.078125 -7.359375 C 7.984375 -6.960938 7.890625 -6.578125 7.796875 -6.203125 C 7.710938 -5.828125 7.628906 -5.507812 7.546875 -5.25 L 6.046875 -0.015625 L 3.40625 -0.015625 L 0.21875 -11.359375 L 2.65625 -11.359375 L 4.140625 -5.71875 C 4.234375 -5.332031 4.328125 -4.914062 4.421875 -4.46875 C 4.515625 -4.03125 4.59375 -3.609375 4.65625 -3.203125 C 4.726562 -2.804688 4.78125 -2.476562 4.8125 -2.21875 L 4.890625 -2.21875 C 4.921875 -2.394531 4.957031 -2.625 5 -2.90625 C 5.050781 -3.195312 5.109375 -3.492188 5.171875 -3.796875 C 5.234375 -4.109375 5.296875 -4.40625 5.359375 -4.6875 C 5.421875 -4.96875 5.476562 -5.191406 5.53125 -5.359375 L 7.28125 -11.359375 L 9.90625 -11.359375 L 11.578125 -5.359375 C 11.648438 -5.097656 11.726562 -4.769531 11.8125 -4.375 C 11.90625 -3.988281 11.988281 -3.597656 12.0625 -3.203125 C 12.132812 -2.804688 12.179688 -2.476562 12.203125 -2.21875 L 12.28125 -2.21875 C 12.3125 -2.457031 12.363281 -2.773438 12.4375 -3.171875 C 12.507812 -3.566406 12.59375 -3.992188 12.6875 -4.453125 C 12.78125 -4.910156 12.878906 -5.332031 12.984375 -5.71875 L 14.484375 -11.359375 L 16.890625 -11.359375 L 13.6875 -0.015625 Z M 11 -0.015625 "></path></g></g><g transform="translate(121.461045, 30.370798)"><g><path d="M 6.171875 -11.5625 C 7.597656 -11.5625 8.675781 -11.242188 9.40625 -10.609375 C 10.144531 -9.972656 10.515625 -8.984375 10.515625 -7.640625 L 10.515625 0 L 8.8125 0 L 8.34375 -1.609375 L 8.265625 -1.609375 C 7.941406 -1.203125 7.609375 -0.863281 7.265625 -0.59375 C 6.929688 -0.320312 6.539062 -0.125 6.09375 0 C 5.644531 0.132812 5.097656 0.203125 4.453125 0.203125 C 3.773438 0.203125 3.171875 0.078125 2.640625 -0.171875 C 2.109375 -0.421875 1.6875 -0.800781 1.375 -1.3125 C 1.070312 -1.820312 0.921875 -2.472656 0.921875 -3.265625 C 0.921875 -4.429688 1.351562 -5.304688 2.21875 -5.890625 C 3.09375 -6.472656 4.410156 -6.796875 6.171875 -6.859375 L 8.140625 -6.9375 L 8.140625 -7.53125 C 8.140625 -8.3125 7.957031 -8.867188 7.59375 -9.203125 C 7.226562 -9.546875 6.71875 -9.71875 6.0625 -9.71875 C 5.488281 -9.71875 4.9375 -9.632812 4.40625 -9.46875 C 3.875 -9.300781 3.351562 -9.097656 2.84375 -8.859375 L 2.0625 -10.5625 C 2.625 -10.851562 3.253906 -11.09375 3.953125 -11.28125 C 4.660156 -11.46875 5.398438 -11.5625 6.171875 -11.5625 Z M 8.140625 -5.421875 L 6.671875 -5.375 C 5.460938 -5.332031 4.613281 -5.125 4.125 -4.75 C 3.644531 -4.382812 3.40625 -3.878906 3.40625 -3.234375 C 3.40625 -2.671875 3.570312 -2.257812 3.90625 -2 C 4.25 -1.75 4.691406 -1.625 5.234375 -1.625 C 6.066406 -1.625 6.757812 -1.859375 7.3125 -2.328125 C 7.863281 -2.804688 8.140625 -3.507812 8.140625 -4.4375 Z M 8.140625 -5.421875 "></path></g></g><g transform="translate(133.636188, 30.370798)"><g><path d="M 7.46875 -11.5625 C 7.65625 -11.5625 7.863281 -11.550781 8.09375 -11.53125 C 8.320312 -11.507812 8.515625 -11.476562 8.671875 -11.4375 L 8.453125 -9.1875 C 8.304688 -9.226562 8.128906 -9.257812 7.921875 -9.28125 C 7.710938 -9.300781 7.523438 -9.3125 7.359375 -9.3125 C 6.929688 -9.3125 6.519531 -9.238281 6.125 -9.09375 C 5.738281 -8.957031 5.394531 -8.75 5.09375 -8.46875 C 4.800781 -8.1875 4.566406 -7.832031 4.390625 -7.40625 C 4.222656 -6.976562 4.140625 -6.488281 4.140625 -5.9375 L 4.140625 0 L 1.71875 0 L 1.71875 -11.34375 L 3.609375 -11.34375 L 3.9375 -9.34375 L 4.046875 -9.34375 C 4.273438 -9.75 4.554688 -10.117188 4.890625 -10.453125 C 5.222656 -10.785156 5.601562 -11.050781 6.03125 -11.25 C 6.46875 -11.457031 6.945312 -11.5625 7.46875 -11.5625 Z M 7.46875 -11.5625 "></path></g></g><g transform="translate(142.695806, 30.370798)"><g><path d="M 6.234375 -11.5625 C 7.242188 -11.5625 8.109375 -11.351562 8.828125 -10.9375 C 9.554688 -10.519531 10.113281 -9.925781 10.5 -9.15625 C 10.894531 -8.394531 11.09375 -7.484375 11.09375 -6.421875 L 11.09375 -5.125 L 3.53125 -5.125 C 3.550781 -4.019531 3.84375 -3.171875 4.40625 -2.578125 C 4.96875 -1.984375 5.757812 -1.6875 6.78125 -1.6875 C 7.507812 -1.6875 8.160156 -1.753906 8.734375 -1.890625 C 9.304688 -2.035156 9.898438 -2.242188 10.515625 -2.515625 L 10.515625 -0.5625 C 9.953125 -0.289062 9.375 -0.0976562 8.78125 0.015625 C 8.195312 0.140625 7.5 0.203125 6.6875 0.203125 C 5.570312 0.203125 4.59375 -0.0078125 3.75 -0.4375 C 2.90625 -0.875 2.242188 -1.519531 1.765625 -2.375 C 1.296875 -3.238281 1.0625 -4.3125 1.0625 -5.59375 C 1.0625 -6.863281 1.273438 -7.941406 1.703125 -8.828125 C 2.128906 -9.722656 2.734375 -10.398438 3.515625 -10.859375 C 4.296875 -11.328125 5.203125 -11.5625 6.234375 -11.5625 Z M 6.234375 -9.75 C 5.484375 -9.75 4.875 -9.5 4.40625 -9 C 3.9375 -8.507812 3.660156 -7.789062 3.578125 -6.84375 L 8.734375 -6.84375 C 8.734375 -7.40625 8.640625 -7.90625 8.453125 -8.34375 C 8.273438 -8.78125 8.003906 -9.125 7.640625 -9.375 C 7.273438 -9.625 6.804688 -9.75 6.234375 -9.75 Z M 6.234375 -9.75 "></path></g></g><g transform="translate(154.788961, 30.370798)"><g></g></g><g transform="translate(160.24113, 30.370798)"><g><path d="M 10.609375 -4.078125 C 10.609375 -3.191406 10.390625 -2.425781 9.953125 -1.78125 C 9.523438 -1.132812 8.90625 -0.640625 8.09375 -0.296875 C 7.289062 0.0351562 6.328125 0.203125 5.203125 0.203125 C 4.660156 0.203125 4.140625 0.171875 3.640625 0.109375 C 3.140625 0.046875 2.664062 -0.0390625 2.21875 -0.15625 C 1.78125 -0.28125 1.382812 -0.425781 1.03125 -0.59375 L 1.03125 -2.90625 C 1.632812 -2.644531 2.3125 -2.40625 3.0625 -2.1875 C 3.8125 -1.96875 4.578125 -1.859375 5.359375 -1.859375 C 5.992188 -1.859375 6.519531 -1.941406 6.9375 -2.109375 C 7.363281 -2.273438 7.675781 -2.515625 7.875 -2.828125 C 8.082031 -3.140625 8.1875 -3.503906 8.1875 -3.921875 C 8.1875 -4.367188 8.066406 -4.742188 7.828125 -5.046875 C 7.585938 -5.359375 7.226562 -5.640625 6.75 -5.890625 C 6.269531 -6.148438 5.664062 -6.425781 4.9375 -6.71875 C 4.445312 -6.914062 3.976562 -7.140625 3.53125 -7.390625 C 3.082031 -7.648438 2.679688 -7.945312 2.328125 -8.28125 C 1.984375 -8.625 1.707031 -9.03125 1.5 -9.5 C 1.300781 -9.96875 1.203125 -10.519531 1.203125 -11.15625 C 1.203125 -12 1.40625 -12.722656 1.8125 -13.328125 C 2.21875 -13.929688 2.789062 -14.390625 3.53125 -14.703125 C 4.28125 -15.023438 5.148438 -15.1875 6.140625 -15.1875 C 6.921875 -15.1875 7.65625 -15.101562 8.34375 -14.9375 C 9.039062 -14.78125 9.726562 -14.550781 10.40625 -14.25 L 9.625 -12.28125 C 9.007812 -12.53125 8.410156 -12.726562 7.828125 -12.875 C 7.253906 -13.03125 6.664062 -13.109375 6.0625 -13.109375 C 5.539062 -13.109375 5.097656 -13.03125 4.734375 -12.875 C 4.378906 -12.71875 4.109375 -12.492188 3.921875 -12.203125 C 3.734375 -11.921875 3.640625 -11.585938 3.640625 -11.203125 C 3.640625 -10.765625 3.742188 -10.394531 3.953125 -10.09375 C 4.171875 -9.800781 4.503906 -9.53125 4.953125 -9.28125 C 5.410156 -9.039062 6 -8.769531 6.71875 -8.46875 C 7.550781 -8.125 8.253906 -7.765625 8.828125 -7.390625 C 9.398438 -7.015625 9.835938 -6.5625 10.140625 -6.03125 C 10.453125 -5.507812 10.609375 -4.859375 10.609375 -4.078125 Z M 10.609375 -4.078125 "></path></g></g><g transform="translate(171.780869, 30.370798)"><g><path d="M 5.9375 -1.734375 C 6.257812 -1.734375 6.570312 -1.765625 6.875 -1.828125 C 7.1875 -1.890625 7.46875 -1.957031 7.71875 -2.03125 L 7.71875 -0.21875 C 7.445312 -0.101562 7.097656 -0.00390625 6.671875 0.078125 C 6.253906 0.160156 5.816406 0.203125 5.359375 0.203125 C 4.710938 0.203125 4.132812 0.0976562 3.625 -0.109375 C 3.113281 -0.328125 2.707031 -0.695312 2.40625 -1.21875 C 2.101562 -1.75 1.953125 -2.476562 1.953125 -3.40625 L 1.953125 -9.515625 L 0.40625 -9.515625 L 0.40625 -10.578125 L 2.0625 -11.4375 L 2.859375 -13.859375 L 4.375 -13.859375 L 4.375 -11.34375 L 7.625 -11.34375 L 7.625 -9.515625 L 4.375 -9.515625 L 4.375 -3.4375 C 4.375 -2.863281 4.515625 -2.4375 4.796875 -2.15625 C 5.085938 -1.875 5.46875 -1.734375 5.9375 -1.734375 Z M 5.9375 -1.734375 "></path></g></g><g transform="translate(180.082103, 30.370798)"><g><path d="M 11.765625 -5.703125 C 11.765625 -4.753906 11.640625 -3.914062 11.390625 -3.1875 C 11.148438 -2.457031 10.789062 -1.835938 10.3125 -1.328125 C 9.84375 -0.828125 9.273438 -0.445312 8.609375 -0.1875 C 7.953125 0.0703125 7.207031 0.203125 6.375 0.203125 C 5.59375 0.203125 4.878906 0.0703125 4.234375 -0.1875 C 3.585938 -0.445312 3.023438 -0.828125 2.546875 -1.328125 C 2.066406 -1.835938 1.695312 -2.457031 1.4375 -3.1875 C 1.1875 -3.914062 1.0625 -4.753906 1.0625 -5.703125 C 1.0625 -6.953125 1.273438 -8.007812 1.703125 -8.875 C 2.140625 -9.75 2.757812 -10.414062 3.5625 -10.875 C 4.375 -11.332031 5.332031 -11.5625 6.4375 -11.5625 C 7.488281 -11.5625 8.410156 -11.332031 9.203125 -10.875 C 10.003906 -10.414062 10.628906 -9.75 11.078125 -8.875 C 11.535156 -8 11.765625 -6.941406 11.765625 -5.703125 Z M 3.53125 -5.703125 C 3.53125 -4.867188 3.628906 -4.15625 3.828125 -3.5625 C 4.035156 -2.976562 4.347656 -2.53125 4.765625 -2.21875 C 5.191406 -1.914062 5.742188 -1.765625 6.421875 -1.765625 C 7.085938 -1.765625 7.628906 -1.914062 8.046875 -2.21875 C 8.472656 -2.53125 8.785156 -2.976562 8.984375 -3.5625 C 9.179688 -4.15625 9.28125 -4.867188 9.28125 -5.703125 C 9.28125 -6.523438 9.179688 -7.222656 8.984375 -7.796875 C 8.785156 -8.378906 8.472656 -8.820312 8.046875 -9.125 C 7.628906 -9.425781 7.082031 -9.578125 6.40625 -9.578125 C 5.40625 -9.578125 4.675781 -9.242188 4.21875 -8.578125 C 3.757812 -7.910156 3.53125 -6.953125 3.53125 -5.703125 Z M 3.53125 -5.703125 "></path></g></g><g transform="translate(192.892649, 30.370798)"><g><path d="M 7.46875 -11.5625 C 7.65625 -11.5625 7.863281 -11.550781 8.09375 -11.53125 C 8.320312 -11.507812 8.515625 -11.476562 8.671875 -11.4375 L 8.453125 -9.1875 C 8.304688 -9.226562 8.128906 -9.257812 7.921875 -9.28125 C 7.710938 -9.300781 7.523438 -9.3125 7.359375 -9.3125 C 6.929688 -9.3125 6.519531 -9.238281 6.125 -9.09375 C 5.738281 -8.957031 5.394531 -8.75 5.09375 -8.46875 C 4.800781 -8.1875 4.566406 -7.832031 4.390625 -7.40625 C 4.222656 -6.976562 4.140625 -6.488281 4.140625 -5.9375 L 4.140625 0 L 1.71875 0 L 1.71875 -11.34375 L 3.609375 -11.34375 L 3.9375 -9.34375 L 4.046875 -9.34375 C 4.273438 -9.75 4.554688 -10.117188 4.890625 -10.453125 C 5.222656 -10.785156 5.601562 -11.050781 6.03125 -11.25 C 6.46875 -11.457031 6.945312 -11.5625 7.46875 -11.5625 Z M 7.46875 -11.5625 "></path></g></g><g transform="translate(201.952267, 30.370798)"><g><path d="M 6.234375 -11.5625 C 7.242188 -11.5625 8.109375 -11.351562 8.828125 -10.9375 C 9.554688 -10.519531 10.113281 -9.925781 10.5 -9.15625 C 10.894531 -8.394531 11.09375 -7.484375 11.09375 -6.421875 L 11.09375 -5.125 L 3.53125 -5.125 C 3.550781 -4.019531 3.84375 -3.171875 4.40625 -2.578125 C 4.96875 -1.984375 5.757812 -1.6875 6.78125 -1.6875 C 7.507812 -1.6875 8.160156 -1.753906 8.734375 -1.890625 C 9.304688 -2.035156 9.898438 -2.242188 10.515625 -2.515625 L 10.515625 -0.5625 C 9.953125 -0.289062 9.375 -0.0976562 8.78125 0.015625 C 8.195312 0.140625 7.5 0.203125 6.6875 0.203125 C 5.570312 0.203125 4.59375 -0.0078125 3.75 -0.4375 C 2.90625 -0.875 2.242188 -1.519531 1.765625 -2.375 C 1.296875 -3.238281 1.0625 -4.3125 1.0625 -5.59375 C 1.0625 -6.863281 1.273438 -7.941406 1.703125 -8.828125 C 2.128906 -9.722656 2.734375 -10.398438 3.515625 -10.859375 C 4.296875 -11.328125 5.203125 -11.5625 6.234375 -11.5625 Z M 6.234375 -9.75 C 5.484375 -9.75 4.875 -9.5 4.40625 -9 C 3.9375 -8.507812 3.660156 -7.789062 3.578125 -6.84375 L 8.734375 -6.84375 C 8.734375 -7.40625 8.640625 -7.90625 8.453125 -8.34375 C 8.273438 -8.78125 8.003906 -9.125 7.640625 -9.375 C 7.273438 -9.625 6.804688 -9.75 6.234375 -9.75 Z M 6.234375 -9.75 "></path></g></g></g></svg>